<svg width="150" height="150" viewBox="0 0 150 150" fill="none" xmlns="http://www.w3.org/2000/svg">
<g clip-path="url(#clip0_2367_397)">
<path d="M18.9876 63.6372C13.9876 57.0272 8.91762 50.4272 3.98762 43.7572C-0.0123842 38.3472 -0.0123842 38.3272 4.08762 32.9072C8.44762 27.0872 12.8076 21.2672 17.0876 15.3772C17.5759 14.6045 18.2639 13.9782 19.079 13.5645C19.894 13.1509 20.8057 12.9652 21.7176 13.0272C32.4976 13.1272 43.2776 13.0272 54.0576 13.0272C54.642 12.9525 55.2358 13.0323 55.7797 13.2586C56.3237 13.485 56.7987 13.85 57.1576 14.3172C62.7576 21.9072 68.4076 29.4572 73.9876 37.0272C74.1866 37.3482 74.3637 37.6823 74.5176 38.0272C74.5176 38.1772 74.4076 38.3172 74.3576 38.4672H38.9576C38.448 38.448 37.9425 38.566 37.494 38.8087C37.0455 39.0514 36.6703 39.4101 36.4076 39.8472C34.0076 43.1372 31.4076 46.3172 29.0976 49.6472C25.8176 54.3272 21.9876 58.7072 18.9876 63.6372ZM148.428 37.8872C148.728 38.8172 148.128 39.4372 147.648 40.0872C136.108 55.6672 124.554 71.2405 112.988 86.8072C112.548 87.3013 112.07 87.7594 111.558 88.1772L111.048 87.9072C110.568 87.1672 110.148 86.3872 109.618 85.6772C104.098 78.2439 98.571 70.8205 93.0376 63.4072C93.2368 62.8579 93.4879 62.3288 93.7876 61.8272C99.721 53.8672 105.664 45.9172 111.618 37.9772L148.428 37.8872Z" fill="#2CF0A7"/>
<path d="M18.9876 63.6372C21.9876 58.7072 25.8076 54.3272 29.1276 49.6372C31.4776 46.3072 34.0376 43.1272 36.4376 39.8372C36.6965 39.3945 37.07 39.0298 37.5188 38.7817C37.9676 38.5335 38.475 38.4111 38.9876 38.4272H74.3876C72.9918 40.7494 71.4311 42.9684 69.7176 45.0672C65.3176 51.1472 60.4876 56.9272 56.4676 63.2972C55.5276 63.7072 55.1176 64.6272 54.5476 65.3872C48.8676 72.9672 43.2009 80.5572 37.5476 88.1572C34.3676 84.6172 31.7676 80.6272 28.8776 76.8672C25.5176 72.5072 22.2776 68.0272 18.9876 63.6372Z" fill="#083BA4"/>
<path d="M111.068 87.9072L111.578 88.1772C102.271 100.744 92.9676 113.287 83.6676 125.807L74.6676 137.947C73.4019 136.7 72.2845 135.311 71.3376 133.807C66.5709 127.447 61.8209 121.064 57.0876 114.657C56.6576 114.077 56.0076 113.597 56.0876 112.757C56.5576 112.187 57.0876 111.637 57.4876 111.047L74.3876 88.3072H109.138C109.804 88.3308 110.466 88.1936 111.068 87.9072ZM56.4776 63.3072C60.4776 56.9372 65.3276 51.1572 69.7276 45.0772C71.4411 42.9784 73.0018 40.7594 74.3976 38.4372C74.3976 38.2872 74.5076 38.1472 74.5576 37.9972C80.3176 30.3105 86.0776 22.6439 91.8376 14.9972C92.2876 14.4072 92.4976 13.4072 93.5976 13.5772C93.9376 14.1372 94.2376 14.7372 94.5976 15.2672C100.258 22.8605 105.924 30.4472 111.598 38.0272L93.8076 61.8272C93.5079 62.3288 93.2568 62.8579 93.0576 63.4072C92.39 63.0727 91.6393 62.9406 90.8976 63.0272H58.9876C58.1754 62.879 57.3375 63.0588 56.6576 63.5272C56.6135 63.5057 56.5746 63.4749 56.5435 63.4369C56.5124 63.3989 56.49 63.3547 56.4776 63.3072Z" fill="#922DAB"/>
<path d="M111.638 38.0272C105.971 30.4472 100.304 22.8605 94.6376 15.2672C94.2476 14.7372 93.9476 14.1372 93.6376 13.5772C94.1444 13.2794 94.7326 13.1498 95.3176 13.2072C106.388 13.2072 117.458 13.2072 128.528 13.1172C129.044 13.0792 129.56 13.1753 130.028 13.396C130.496 13.6168 130.899 13.9548 131.198 14.3772C136.804 21.9572 142.424 29.5272 148.058 37.0872C148.209 37.3401 148.333 37.6082 148.428 37.8872L111.638 38.0272ZM74.3876 88.3072L57.4576 111.027C57.0176 111.617 56.5276 112.167 56.0576 112.737C53.8976 111.277 52.7976 108.947 51.2776 106.967C47.1876 101.627 43.1876 96.2072 39.1776 90.7972C38.4733 90.0293 37.9172 89.1376 37.5376 88.1672C43.2109 80.5739 48.8776 72.9839 54.5376 65.3972C55.1076 64.6372 55.5376 63.7172 56.4576 63.3072C56.4731 63.3582 56.5015 63.4043 56.5401 63.441C56.5786 63.4778 56.626 63.5041 56.6776 63.5172C56.9771 64.1031 57.311 64.6707 57.6776 65.2172C62.8309 72.1572 67.9876 79.0939 73.1476 86.0272C73.7712 86.6524 74.2017 87.4439 74.3876 88.3072Z" fill="#FCE706"/>
<path d="M74.3876 88.3072C74.2017 87.4439 73.7712 86.6524 73.1476 86.0272C67.9876 79.0939 62.8309 72.1639 57.6776 65.2372C57.3111 64.6908 56.9771 64.1231 56.6776 63.5372C57.3525 63.0745 58.1806 62.8917 58.9876 63.0272H90.8976C91.6393 62.9406 92.39 63.0727 93.0576 63.4072C98.5909 70.8272 104.118 78.2506 109.638 85.6772C110.168 86.3872 110.588 87.1672 111.068 87.9072C110.47 88.2109 109.808 88.3653 109.138 88.3572L74.3876 88.3072Z" fill="#F93D89"/>
</g>
<defs>
<clipPath id="clip0_2367_397">
<rect width="147.508" height="124.947" fill="white" transform="translate(1 13)"/>
</clipPath>
</defs>
</svg>
