<svg width="40" height="19" viewBox="0 0 40 19" fill="none" xmlns="http://www.w3.org/2000/svg">
<path d="M4.178 14.042L1.966 9.184C1.86333 8.95067 1.78867 8.77333 1.742 8.652C1.70467 8.53067 1.67667 8.428 1.658 8.344C1.64867 8.25067 1.63 8.148 1.602 8.036L1.084 8.064V7H4.36V7.896C4.164 7.90533 4.03333 7.96133 3.968 8.064C3.90267 8.16667 3.87933 8.302 3.898 8.47C3.91667 8.62867 3.95867 8.80133 4.024 8.988L4.752 10.78C4.82667 10.9573 4.90133 11.1393 4.976 11.326C5.05067 11.5127 5.12533 11.6993 5.2 11.886H5.214C5.28867 11.69 5.35867 11.494 5.424 11.298C5.49867 11.102 5.56867 10.906 5.634 10.71L6.236 9.002C6.32 8.76867 6.39467 8.582 6.46 8.442C6.53467 8.302 6.614 8.15733 6.698 8.008L5.83 8.064V7H8.49V7.896C8.27533 7.93333 8.084 8.05467 7.916 8.26C7.748 8.456 7.60333 8.68 7.482 8.932C7.36067 9.17467 7.26267 9.38933 7.188 9.576L5.396 14.042H4.178ZM12.9611 14.224C12.2798 14.224 11.6778 14.0747 11.1551 13.776C10.6325 13.468 10.2265 13.0387 9.93714 12.488C9.64781 11.928 9.50314 11.27 9.50314 10.514C9.50314 9.86067 9.64781 9.24933 9.93714 8.68C10.2265 8.11067 10.6325 7.65333 11.1551 7.308C11.6871 6.95333 12.3031 6.776 13.0031 6.776C13.3951 6.776 13.7778 6.832 14.1511 6.944C14.5245 7.04667 14.8605 7.22867 15.1591 7.49C15.4671 7.75133 15.7098 8.106 15.8871 8.554C16.0738 9.002 16.1625 9.562 16.1531 10.234L11.5611 10.318C11.5611 10.822 11.6218 11.2747 11.7431 11.676C11.8738 12.0773 12.0838 12.3947 12.3731 12.628C12.6625 12.8613 13.0498 12.978 13.5351 12.978C13.7218 12.978 13.9318 12.9453 14.1651 12.88C14.4078 12.8147 14.6505 12.7073 14.8931 12.558C15.1451 12.3993 15.3785 12.1893 15.5931 11.928L16.2231 12.516C15.8871 12.992 15.5278 13.356 15.1451 13.608C14.7625 13.8507 14.3798 14.014 13.9971 14.098C13.6238 14.182 13.2785 14.224 12.9611 14.224ZM11.6451 9.338H14.2211C14.2118 8.946 14.1558 8.638 14.0531 8.414C13.9598 8.18067 13.8291 8.01267 13.6611 7.91C13.4931 7.80733 13.2971 7.756 13.0731 7.756C12.6625 7.756 12.3405 7.90533 12.1071 8.204C11.8738 8.49333 11.7198 8.87133 11.6451 9.338ZM20.4803 14.042L18.2683 9.184C18.1657 8.95067 18.091 8.77333 18.0443 8.652C18.007 8.53067 17.979 8.428 17.9603 8.344C17.951 8.25067 17.9323 8.148 17.9043 8.036L17.3863 8.064V7H20.6623V7.896C20.4663 7.90533 20.3357 7.96133 20.2703 8.064C20.205 8.16667 20.1817 8.302 20.2003 8.47C20.219 8.62867 20.261 8.80133 20.3263 8.988L21.0543 10.78C21.129 10.9573 21.2037 11.1393 21.2783 11.326C21.353 11.5127 21.4277 11.6993 21.5023 11.886H21.5163C21.591 11.69 21.661 11.494 21.7263 11.298C21.801 11.102 21.871 10.906 21.9363 10.71L22.5383 9.002C22.6223 8.76867 22.697 8.582 22.7623 8.442C22.837 8.302 22.9163 8.15733 23.0003 8.008L22.1323 8.064V7H24.7923V7.896C24.5777 7.93333 24.3863 8.05467 24.2183 8.26C24.0503 8.456 23.9057 8.68 23.7843 8.932C23.663 9.17467 23.565 9.38933 23.4903 9.576L21.6983 14.042H20.4803ZM29.2635 14.224C28.5822 14.224 27.9802 14.0747 27.4575 13.776C26.9348 13.468 26.5288 13.0387 26.2395 12.488C25.9502 11.928 25.8055 11.27 25.8055 10.514C25.8055 9.86067 25.9502 9.24933 26.2395 8.68C26.5288 8.11067 26.9348 7.65333 27.4575 7.308C27.9895 6.95333 28.6055 6.776 29.3055 6.776C29.6975 6.776 30.0802 6.832 30.4535 6.944C30.8268 7.04667 31.1628 7.22867 31.4615 7.49C31.7695 7.75133 32.0122 8.106 32.1895 8.554C32.3762 9.002 32.4648 9.562 32.4555 10.234L27.8635 10.318C27.8635 10.822 27.9242 11.2747 28.0455 11.676C28.1762 12.0773 28.3862 12.3947 28.6755 12.628C28.9648 12.8613 29.3522 12.978 29.8375 12.978C30.0242 12.978 30.2342 12.9453 30.4675 12.88C30.7102 12.8147 30.9528 12.7073 31.1955 12.558C31.4475 12.3993 31.6808 12.1893 31.8955 11.928L32.5255 12.516C32.1895 12.992 31.8302 13.356 31.4475 13.608C31.0648 13.8507 30.6822 14.014 30.2995 14.098C29.9262 14.182 29.5808 14.224 29.2635 14.224ZM27.9475 9.338H30.5235C30.5142 8.946 30.4582 8.638 30.3555 8.414C30.2622 8.18067 30.1315 8.01267 29.9635 7.91C29.7955 7.80733 29.5995 7.756 29.3755 7.756C28.9648 7.756 28.6428 7.90533 28.4095 8.204C28.1762 8.49333 28.0222 8.87133 27.9475 9.338ZM36.9507 14.224C36.6707 14.224 36.4 14.1913 36.1387 14.126C35.8774 14.0607 35.644 13.9393 35.4387 13.762C35.2334 13.5753 35.07 13.3047 34.9487 12.95C34.8274 12.5953 34.7667 12.124 34.7667 11.536L34.7947 8.162H33.8427V7C34.132 6.99067 34.412 6.89267 34.6827 6.706C34.9534 6.51933 35.182 6.27667 35.3687 5.978C35.5647 5.67933 35.6954 5.36667 35.7607 5.04H36.7967L36.7827 7H38.5607V8.078L36.7827 8.12L36.7687 11.564C36.7687 11.7787 36.7874 11.9933 36.8247 12.208C36.8714 12.4133 36.9554 12.586 37.0767 12.726C37.198 12.8567 37.3754 12.922 37.6087 12.922C37.7394 12.922 37.9167 12.8753 38.1407 12.782C38.374 12.6887 38.6214 12.4553 38.8827 12.082L39.5547 12.712C39.3027 13.0853 39.0414 13.3747 38.7707 13.58C38.5 13.7853 38.2387 13.9347 37.9867 14.028C37.744 14.1213 37.5294 14.1773 37.3427 14.196C37.156 14.2147 37.0254 14.224 36.9507 14.224Z" fill="url(#paint0_linear_2548_82)"/>
<defs>
<linearGradient id="paint0_linear_2548_82" x1="1" y1="9" x2="40" y2="9" gradientUnits="userSpaceOnUse">
<stop stop-color="#0D6EFD"/>
<stop offset="1" stop-color="#8C7AE6"/>
</linearGradient>
</defs>
</svg>
