<svg width="43" height="19" viewBox="0 0 43 19" fill="none" xmlns="http://www.w3.org/2000/svg">
<path d="M3.84 14.072L1.08 7.628C1 7.428 0.924 7.22 0.852 7.004C0.78 6.788 0.744 6.616 0.744 6.488C0.616 6.496 0.496 6.504 0.384 6.512C0.28 6.512 0.184 6.516 0.096 6.524V5.6H3.636V6.392C3.34 6.384 3.112 6.448 2.952 6.584C2.8 6.72 2.796 6.964 2.94 7.316C3.124 7.764 3.308 8.216 3.492 8.672C3.676 9.128 3.86 9.58 4.044 10.028C4.18 10.364 4.296 10.66 4.392 10.916C4.488 11.164 4.6 11.44 4.728 11.744H4.74C4.828 11.504 4.92 11.236 5.016 10.94C5.12 10.644 5.22 10.36 5.316 10.088C5.42 9.808 5.52 9.528 5.616 9.248C5.72 8.968 5.824 8.692 5.928 8.42C6.032 8.14 6.132 7.86 6.228 7.58C6.268 7.444 6.332 7.26 6.42 7.028C6.516 6.796 6.616 6.616 6.72 6.488C6.592 6.496 6.428 6.504 6.228 6.512C6.028 6.512 5.884 6.516 5.796 6.524V5.6H8.496V6.392C8.224 6.4 7.988 6.5 7.788 6.692C7.588 6.884 7.4 7.212 7.224 7.676C7.088 8.028 6.952 8.384 6.816 8.744C6.688 9.096 6.556 9.452 6.42 9.812C6.292 10.164 6.16 10.52 6.024 10.88C5.888 11.232 5.752 11.588 5.616 11.948C5.488 12.3 5.356 12.652 5.22 13.004C5.092 13.356 4.96 13.712 4.824 14.072H3.84ZM13.7761 11.108C13.7761 10.772 13.7241 10.528 13.6201 10.376C13.5161 10.224 13.3721 10.132 13.1881 10.1C13.0121 10.06 12.8161 10.044 12.6001 10.052L12.2881 10.064V12.032C12.2881 12.248 12.2841 12.452 12.2761 12.644C12.2681 12.836 12.2561 12.984 12.2401 13.088H13.8481C14.0881 13.088 14.3201 13.036 14.5441 12.932C14.7681 12.82 14.9521 12.64 15.0961 12.392C15.2401 12.136 15.3121 11.792 15.3121 11.36H16.0921L16.0321 14H9.69609V13.208C9.88009 13.2 10.0321 13.176 10.1521 13.136C10.2801 13.096 10.3761 13.004 10.4401 12.86C10.5121 12.716 10.5481 12.484 10.5481 12.164V7.568C10.5481 7.352 10.5521 7.144 10.5601 6.944C10.5761 6.744 10.5881 6.592 10.5961 6.488C10.4681 6.496 10.3081 6.504 10.1161 6.512C9.92409 6.512 9.78409 6.516 9.69609 6.524V5.6H15.6961L15.7681 7.928H14.9761C14.9761 7.488 14.9001 7.156 14.7481 6.932C14.5961 6.708 14.4081 6.56 14.1841 6.488C13.9601 6.408 13.7401 6.372 13.5241 6.38L13.0921 6.392C12.9241 6.392 12.7801 6.416 12.6601 6.464C12.5401 6.504 12.4481 6.6 12.3841 6.752C12.3201 6.896 12.2881 7.124 12.2881 7.436V9.236H13.6921L13.6441 8.192H14.5681V11.108H13.7761ZM20.9423 14.072L18.1823 7.628C18.1023 7.428 18.0263 7.22 17.9543 7.004C17.8823 6.788 17.8463 6.616 17.8463 6.488C17.7183 6.496 17.5983 6.504 17.4863 6.512C17.3823 6.512 17.2863 6.516 17.1983 6.524V5.6H20.7383V6.392C20.4423 6.384 20.2143 6.448 20.0543 6.584C19.9023 6.72 19.8983 6.964 20.0423 7.316C20.2263 7.764 20.4103 8.216 20.5943 8.672C20.7783 9.128 20.9623 9.58 21.1463 10.028C21.2823 10.364 21.3983 10.66 21.4943 10.916C21.5903 11.164 21.7023 11.44 21.8303 11.744H21.8423C21.9303 11.504 22.0223 11.236 22.1183 10.94C22.2223 10.644 22.3223 10.36 22.4183 10.088C22.5223 9.808 22.6223 9.528 22.7183 9.248C22.8223 8.968 22.9263 8.692 23.0303 8.42C23.1343 8.14 23.2343 7.86 23.3303 7.58C23.3703 7.444 23.4343 7.26 23.5223 7.028C23.6183 6.796 23.7183 6.616 23.8223 6.488C23.6943 6.496 23.5303 6.504 23.3303 6.512C23.1303 6.512 22.9863 6.516 22.8983 6.524V5.6H25.5983V6.392C25.3263 6.4 25.0903 6.5 24.8903 6.692C24.6903 6.884 24.5023 7.212 24.3263 7.676C24.1903 8.028 24.0543 8.384 23.9183 8.744C23.7903 9.096 23.6583 9.452 23.5223 9.812C23.3943 10.164 23.2623 10.52 23.1263 10.88C22.9903 11.232 22.8543 11.588 22.7183 11.948C22.5903 12.3 22.4583 12.652 22.3223 13.004C22.1943 13.356 22.0623 13.712 21.9263 14.072H20.9423ZM30.8784 11.108C30.8784 10.772 30.8264 10.528 30.7224 10.376C30.6184 10.224 30.4744 10.132 30.2904 10.1C30.1144 10.06 29.9184 10.044 29.7024 10.052L29.3904 10.064V12.032C29.3904 12.248 29.3864 12.452 29.3784 12.644C29.3704 12.836 29.3584 12.984 29.3424 13.088H30.9504C31.1904 13.088 31.4224 13.036 31.6464 12.932C31.8704 12.82 32.0544 12.64 32.1984 12.392C32.3424 12.136 32.4144 11.792 32.4144 11.36H33.1944L33.1344 14H26.7984V13.208C26.9824 13.2 27.1344 13.176 27.2544 13.136C27.3824 13.096 27.4784 13.004 27.5424 12.86C27.6144 12.716 27.6504 12.484 27.6504 12.164V7.568C27.6504 7.352 27.6544 7.144 27.6624 6.944C27.6784 6.744 27.6904 6.592 27.6984 6.488C27.5704 6.496 27.4104 6.504 27.2184 6.512C27.0264 6.512 26.8864 6.516 26.7984 6.524V5.6H32.7984L32.8704 7.928H32.0784C32.0784 7.488 32.0024 7.156 31.8504 6.932C31.6984 6.708 31.5104 6.56 31.2864 6.488C31.0624 6.408 30.8424 6.372 30.6264 6.38L30.1944 6.392C30.0264 6.392 29.8824 6.416 29.7624 6.464C29.6424 6.504 29.5504 6.6 29.4864 6.752C29.4224 6.896 29.3904 7.124 29.3904 7.436V9.236H30.7944L30.7464 8.192H31.6704V11.108H30.8784ZM41.0907 8.312C41.0907 7.88 41.0307 7.524 40.9107 7.244C40.7907 6.956 40.6187 6.744 40.3947 6.608C40.1787 6.464 39.9187 6.396 39.6147 6.404H39.0387V12.032C39.0387 12.248 39.0347 12.456 39.0267 12.656C39.0187 12.856 39.0067 13.008 38.9907 13.112C39.1267 13.096 39.2987 13.088 39.5067 13.088C39.7227 13.08 39.8707 13.076 39.9507 13.076V14H36.4467V13.208C36.6307 13.2 36.7827 13.176 36.9027 13.136C37.0307 13.096 37.1267 13.004 37.1907 12.86C37.2627 12.716 37.2987 12.484 37.2987 12.164V6.416H36.7467C36.2907 6.424 35.9307 6.58 35.6667 6.884C35.4027 7.188 35.2707 7.664 35.2707 8.312H34.4787L34.5387 5.6H41.8107L41.8827 8.312H41.0907Z" fill="url(#paint0_linear_2502_29)"/>
<defs>
<linearGradient id="paint0_linear_2502_29" x1="0" y1="9.5" x2="43" y2="9.5" gradientUnits="userSpaceOnUse">
<stop stop-color="#0D6EFD"/>
<stop offset="1" stop-color="#8C7AE6"/>
</linearGradient>
</defs>
</svg>
