<svg width="57" height="19" viewBox="0 0 57 19" fill="none" xmlns="http://www.w3.org/2000/svg">
<mask id="mask0_2548_82" style="mask-type:alpha" maskUnits="userSpaceOnUse" x="0" y="0" width="57" height="19">
<rect width="57" height="19" fill="#D9D9D9"/>
</mask>
<g mask="url(#mask0_2548_82)">
<path d="M3.232 14C2.756 13.0667 2.27067 11.9747 1.776 10.724C1.29067 9.47333 0.828667 8.11067 0.39 6.636H2.602C2.69533 7 2.80267 7.39667 2.924 7.826C3.05467 8.246 3.18533 8.67533 3.316 9.114C3.456 9.54333 3.59133 9.96333 3.722 10.374C3.862 10.7847 3.99733 11.158 4.128 11.494C4.24933 11.158 4.38 10.7847 4.52 10.374C4.66 9.96333 4.79533 9.54333 4.926 9.114C5.066 8.67533 5.19667 8.246 5.318 7.826C5.44867 7.39667 5.56067 7 5.654 6.636H7.81C7.37133 8.11067 6.90467 9.47333 6.41 10.724C5.92467 11.9747 5.444 13.0667 4.968 14H3.232ZM9.08586 10.374C9.08586 9.72067 9.18386 9.15133 9.37986 8.666C9.58519 8.17133 9.85119 7.76067 10.1779 7.434C10.5045 7.10733 10.8779 6.86 11.2979 6.692C11.7272 6.524 12.1659 6.44 12.6139 6.44C13.6592 6.44 14.4852 6.762 15.0919 7.406C15.6985 8.04067 16.0019 8.97867 16.0019 10.22C16.0019 10.3413 15.9972 10.4767 15.9879 10.626C15.9785 10.766 15.9692 10.892 15.9599 11.004H11.2279C11.2745 11.4333 11.4752 11.774 11.8299 12.026C12.1845 12.278 12.6605 12.404 13.2579 12.404C13.6405 12.404 14.0139 12.3713 14.3779 12.306C14.7512 12.2313 15.0545 12.1427 15.2879 12.04L15.5679 13.734C15.4559 13.79 15.3065 13.846 15.1199 13.902C14.9332 13.958 14.7232 14.0047 14.4899 14.042C14.2659 14.0887 14.0232 14.126 13.7619 14.154C13.5005 14.182 13.2392 14.196 12.9779 14.196C12.3152 14.196 11.7365 14.098 11.2419 13.902C10.7565 13.706 10.3505 13.44 10.0239 13.104C9.70653 12.7587 9.46853 12.3527 9.30986 11.886C9.16053 11.4193 9.08586 10.9153 9.08586 10.374ZM13.9859 9.576C13.9765 9.39867 13.9439 9.226 13.8879 9.058C13.8412 8.89 13.7619 8.74067 13.6499 8.61C13.5472 8.47933 13.4119 8.372 13.2439 8.288C13.0852 8.204 12.8845 8.162 12.6419 8.162C12.4085 8.162 12.2079 8.204 12.0399 8.288C11.8719 8.36267 11.7319 8.46533 11.6199 8.596C11.5079 8.72667 11.4192 8.88067 11.3539 9.058C11.2979 9.226 11.2559 9.39867 11.2279 9.576H13.9859ZM20.3136 14C19.8376 13.0667 19.3523 11.9747 18.8576 10.724C18.3723 9.47333 17.9103 8.11067 17.4716 6.636H19.6836C19.777 7 19.8843 7.39667 20.0056 7.826C20.1363 8.246 20.267 8.67533 20.3976 9.114C20.5376 9.54333 20.673 9.96333 20.8036 10.374C20.9436 10.7847 21.079 11.158 21.2096 11.494C21.331 11.158 21.4616 10.7847 21.6016 10.374C21.7416 9.96333 21.877 9.54333 22.0076 9.114C22.1476 8.67533 22.2783 8.246 22.3996 7.826C22.5303 7.39667 22.6423 7 22.7356 6.636H24.8916C24.453 8.11067 23.9863 9.47333 23.4916 10.724C23.0063 11.9747 22.5256 13.0667 22.0496 14H20.3136ZM26.1675 10.374C26.1675 9.72067 26.2655 9.15133 26.4615 8.666C26.6668 8.17133 26.9328 7.76067 27.2595 7.434C27.5862 7.10733 27.9595 6.86 28.3795 6.692C28.8088 6.524 29.2475 6.44 29.6955 6.44C30.7408 6.44 31.5668 6.762 32.1735 7.406C32.7802 8.04067 33.0835 8.97867 33.0835 10.22C33.0835 10.3413 33.0788 10.4767 33.0695 10.626C33.0602 10.766 33.0508 10.892 33.0415 11.004H28.3095C28.3562 11.4333 28.5568 11.774 28.9115 12.026C29.2662 12.278 29.7422 12.404 30.3395 12.404C30.7222 12.404 31.0955 12.3713 31.4595 12.306C31.8328 12.2313 32.1362 12.1427 32.3695 12.04L32.6495 13.734C32.5375 13.79 32.3882 13.846 32.2015 13.902C32.0148 13.958 31.8048 14.0047 31.5715 14.042C31.3475 14.0887 31.1048 14.126 30.8435 14.154C30.5822 14.182 30.3208 14.196 30.0595 14.196C29.3968 14.196 28.8182 14.098 28.3235 13.902C27.8382 13.706 27.4322 13.44 27.1055 13.104C26.7882 12.7587 26.5502 12.3527 26.3915 11.886C26.2422 11.4193 26.1675 10.9153 26.1675 10.374ZM31.0675 9.576C31.0582 9.39867 31.0255 9.226 30.9695 9.058C30.9228 8.89 30.8435 8.74067 30.7315 8.61C30.6288 8.47933 30.4935 8.372 30.3255 8.288C30.1668 8.204 29.9662 8.162 29.7235 8.162C29.4902 8.162 29.2895 8.204 29.1215 8.288C28.9535 8.36267 28.8135 8.46533 28.7015 8.596C28.5895 8.72667 28.5008 8.88067 28.4355 9.058C28.3795 9.226 28.3375 9.39867 28.3095 9.576H31.0675ZM35.3233 4.802L37.4093 4.466V6.636H39.9153V8.372H37.4093V10.962C37.4093 11.4007 37.4839 11.7507 37.6333 12.012C37.7919 12.2733 38.1046 12.404 38.5713 12.404C38.7953 12.404 39.0239 12.3853 39.2573 12.348C39.4999 12.3013 39.7193 12.2407 39.9153 12.166L40.2093 13.79C39.9573 13.8927 39.6773 13.9813 39.3693 14.056C39.0613 14.1307 38.6833 14.168 38.2353 14.168C37.6659 14.168 37.1946 14.0933 36.8213 13.944C36.4479 13.7853 36.1493 13.5707 35.9253 13.3C35.7013 13.02 35.5426 12.684 35.4493 12.292C35.3653 11.9 35.3233 11.466 35.3233 10.99V4.802ZM44.5904 12.894C44.5904 13.314 44.4551 13.636 44.1844 13.86C43.9231 14.0747 43.6244 14.182 43.2884 14.182C42.9524 14.182 42.6491 14.0747 42.3784 13.86C42.1171 13.636 41.9864 13.314 41.9864 12.894C41.9864 12.474 42.1171 12.1567 42.3784 11.942C42.6491 11.718 42.9524 11.606 43.2884 11.606C43.6244 11.606 43.9231 11.718 44.1844 11.942C44.4551 12.1567 44.5904 12.474 44.5904 12.894ZM46.0057 16.59C45.8751 16.59 45.6837 16.576 45.4317 16.548C45.1704 16.52 44.9277 16.4687 44.7037 16.394L44.9837 14.7C45.1237 14.7467 45.2544 14.7793 45.3757 14.798C45.4877 14.8167 45.6324 14.826 45.8097 14.826C46.1364 14.826 46.3651 14.728 46.4957 14.532C46.6264 14.336 46.6917 14.0513 46.6917 13.678V6.636H48.7777V13.734C48.7777 14.7047 48.5397 15.4233 48.0637 15.89C47.5877 16.3567 46.9017 16.59 46.0057 16.59ZM48.9737 4.508C48.9737 4.89067 48.8477 5.194 48.5957 5.418C48.3531 5.63267 48.0637 5.74 47.7277 5.74C47.3917 5.74 47.0977 5.63267 46.8457 5.418C46.6031 5.194 46.4817 4.89067 46.4817 4.508C46.4817 4.12533 46.6031 3.82667 46.8457 3.612C47.0977 3.388 47.3917 3.276 47.7277 3.276C48.0637 3.276 48.3531 3.388 48.5957 3.612C48.8477 3.82667 48.9737 4.12533 48.9737 4.508ZM53.5526 12.502C53.9353 12.502 54.2059 12.4647 54.3646 12.39C54.5233 12.3153 54.6026 12.1707 54.6026 11.956C54.6026 11.788 54.4999 11.6433 54.2946 11.522C54.0893 11.3913 53.7766 11.2467 53.3566 11.088C53.0299 10.9667 52.7313 10.8407 52.4606 10.71C52.1993 10.5793 51.9753 10.4253 51.7886 10.248C51.6019 10.0613 51.4573 9.842 51.3546 9.59C51.2519 9.338 51.2006 9.03467 51.2006 8.68C51.2006 7.98933 51.4573 7.44333 51.9706 7.042C52.4839 6.64067 53.1886 6.44 54.0846 6.44C54.5326 6.44 54.9619 6.482 55.3726 6.566C55.7833 6.64067 56.1099 6.72467 56.3526 6.818L55.9886 8.442C55.7459 8.358 55.4799 8.28333 55.1906 8.218C54.9106 8.15267 54.5933 8.12 54.2386 8.12C53.5853 8.12 53.2586 8.302 53.2586 8.666C53.2586 8.75 53.2726 8.82467 53.3006 8.89C53.3286 8.95533 53.3846 9.02067 53.4686 9.086C53.5526 9.142 53.6646 9.20733 53.8046 9.282C53.9539 9.34733 54.1406 9.422 54.3646 9.506C54.8219 9.674 55.1999 9.842 55.4986 10.01C55.7973 10.1687 56.0306 10.346 56.1986 10.542C56.3759 10.7287 56.4973 10.9387 56.5626 11.172C56.6373 11.4053 56.6746 11.676 56.6746 11.984C56.6746 12.712 56.3993 13.2627 55.8486 13.636C55.3073 14.0093 54.5373 14.196 53.5386 14.196C52.8853 14.196 52.3393 14.14 51.9006 14.028C51.4713 13.916 51.1726 13.8227 51.0046 13.748L51.3546 12.054C51.7093 12.194 52.0733 12.306 52.4466 12.39C52.8199 12.4647 53.1886 12.502 53.5526 12.502Z" fill="url(#paint0_linear_2548_82)"/>
</g>
<defs>
<linearGradient id="paint0_linear_2548_82" x1="0.25" y1="9" x2="58.25" y2="9" gradientUnits="userSpaceOnUse">
<stop stop-color="#0D6EFD"/>
<stop offset="1" stop-color="#8C7AE6"/>
</linearGradient>
</defs>
</svg>
